<?xml version="1.0" encoding="UTF-8" standalone="no"?><!-- Generator: Gravit.io --><svg xmlns="http://www.w3.org/2000/svg" xmlns:xlink="http://www.w3.org/1999/xlink" style="isolation:isolate" viewBox="0 0 480 192" width="480pt" height="192pt"><defs><clipPath id="_clipPath_FXIZftVYkEnSFmX88m2IhLBSsga3Cxp9"><rect width="480" height="192"/></clipPath></defs><g clip-path="url(#_clipPath_FXIZftVYkEnSFmX88m2IhLBSsga3Cxp9)"><linearGradient id="_lgradient_1" x1="0.4998993905944581" y1="1.2985799701046332" x2="0.5032051282051281" y2="-0.4687500000000002" gradientTransform="matrix(391.8,0,0,78.2,36,52.1)" gradientUnits="userSpaceOnUse"><stop offset="3.0434782608695654%" stop-opacity="1" style="stop-color:rgb(255,21,18)"/><stop offset="100%" stop-opacity="1" style="stop-color:rgb(255,232,27)"/></linearGradient><path d=" M 302.3 103.05 L 302.3 103.05 L 302.3 103.05 Q 302.3 107.3 305.1 109.65 L 305.1 109.65 L 305.1 109.65 Q 307.9 112 311.05 112 L 311.05 112 L 311.05 112 Q 314.2 112 316.95 110.15 L 316.95 110.15 L 316.95 110.15 Q 319.7 108.3 321.4 108.3 L 321.4 108.3 L 321.4 108.3 Q 324.4 108.3 328.7 113.6 L 328.7 113.6 L 328.7 113.6 Q 331 116.5 331 118.8 L 331 118.8 L 331 118.8 Q 331 122.6 325.5 125.9 L 325.5 125.9 L 325.5 125.9 Q 319.8 129.9 311.5 129.9 L 311.5 129.9 L 311.5 129.9 Q 302.2 129.9 293.6 123.2 L 293.6 123.2 L 293.6 123.2 Q 289.5 120 286.9 114.65 L 286.9 114.65 L 286.9 114.65 Q 284.3 109.3 284.3 102.85 L 284.3 102.85 L 284.3 102.85 Q 284.3 96.4 286.9 91.15 L 286.9 91.15 L 286.9 91.15 Q 289.5 85.9 293.6 82.7 L 293.6 82.7 L 293.6 82.7 Q 301.9 76.1 311.3 76.1 L 311.3 76.1 L 311.3 76.1 Q 315.1 76.1 318.7 77.15 L 318.7 77.15 L 318.7 77.15 Q 322.3 78.2 324 79.2 L 324 79.2 L 325.6 80.2 L 325.6 80.2 Q 327.4 81.4 328.4 82.1 L 328.4 82.1 L 328.4 82.1 Q 331 84.1 331 86.65 L 331 86.65 L 331 86.65 Q 331 89.2 328.9 92.4 L 328.9 92.4 L 328.9 92.4 Q 325.3 97.9 322 97.9 L 322 97.9 L 322 97.9 Q 320.1 97.9 316.6 95.7 L 316.6 95.7 L 316.6 95.7 Q 314.8 94 311.45 94 L 311.45 94 L 311.45 94 Q 308.1 94 305.2 96.4 L 305.2 96.4 L 305.2 96.4 Q 302.3 98.8 302.3 103.05 Z  M 336.9 124.7 L 336.9 124.7 L 336.9 124.7 Q 335 123.5 335 120.9 L 335 120.9 L 335 120.9 Q 335 118.3 338.8 113 L 338.8 113 L 338.8 113 Q 339.9 111.3 342.35 111.3 L 342.35 111.3 L 342.35 111.3 Q 344.8 111.3 349 113.75 L 349 113.75 L 349 113.75 Q 353.2 116.2 356.6 116.2 L 356.6 116.2 L 356.6 116.2 Q 362.7 116.2 362.7 113.8 L 362.7 113.8 L 362.7 113.8 Q 362.7 111.9 356 111 L 356 111 L 356 111 Q 349.7 110.1 343.5 106.3 L 343.5 106.3 L 343.5 106.3 Q 340.6 104.5 338.7 100.65 L 338.7 100.65 L 338.7 100.65 Q 336.8 96.8 336.8 91.5 L 336.8 91.5 L 336.8 91.5 Q 336.8 75.7 358.5 75.7 L 358.5 75.7 L 358.5 75.7 Q 365.6 75.7 373.1 79.1 L 373.1 79.1 L 373.1 79.1 Q 376.6 80.7 376.6 83.1 L 376.6 83.1 L 376.6 83.1 Q 376.6 85.5 374.4 89 L 374.4 89 L 374.4 89 Q 372.2 92.5 369.9 92.5 L 369.9 92.5 L 369.9 92.5 Q 368.7 92.5 365.45 91 L 365.45 91 L 365.45 91 Q 362.2 89.5 358.4 89.5 L 358.4 89.5 L 358.4 89.5 Q 352.5 89.5 352.5 91.7 L 352.5 91.7 L 352.5 91.7 Q 352.5 94.7 359.3 95.6 L 359.3 95.6 L 359.3 95.6 Q 365.9 96.3 372.1 99.4 L 372.1 99.4 L 372.1 99.4 Q 375 100.8 376.95 104.25 L 376.95 104.25 L 376.95 104.25 Q 378.9 107.7 378.9 112.9 L 378.9 112.9 L 378.9 112.9 Q 378.9 118.1 376.95 121.75 L 376.95 121.75 L 376.95 121.75 Q 375 125.4 371.5 127.2 L 371.5 127.2 L 371.5 127.2 Q 365.1 130.3 355.45 130.3 L 355.45 130.3 L 355.45 130.3 Q 345.8 130.3 336.9 124.7 Z  M 385.8 124.7 L 385.8 124.7 L 385.8 124.7 Q 383.9 123.5 383.9 120.9 L 383.9 120.9 L 383.9 120.9 Q 383.9 118.3 387.7 113 L 387.7 113 L 387.7 113 Q 388.8 111.3 391.25 111.3 L 391.25 111.3 L 391.25 111.3 Q 393.7 111.3 397.9 113.75 L 397.9 113.75 L 397.9 113.75 Q 402.1 116.2 405.5 116.2 L 405.5 116.2 L 405.5 116.2 Q 411.6 116.2 411.6 113.8 L 411.6 113.8 L 411.6 113.8 Q 411.6 111.9 404.9 111 L 404.9 111 L 404.9 111 Q 398.6 110.1 392.4 106.3 L 392.4 106.3 L 392.4 106.3 Q 389.5 104.5 387.6 100.65 L 387.6 100.65 L 387.6 100.65 Q 385.7 96.8 385.7 91.5 L 385.7 91.5 L 385.7 91.5 Q 385.7 75.7 407.4 75.7 L 407.4 75.7 L 407.4 75.7 Q 414.5 75.7 422 79.1 L 422 79.1 L 422 79.1 Q 425.5 80.7 425.5 83.1 L 425.5 83.1 L 425.5 83.1 Q 425.5 85.5 423.3 89 L 423.3 89 L 423.3 89 Q 421.1 92.5 418.8 92.5 L 418.8 92.5 L 418.8 92.5 Q 417.6 92.5 414.35 91 L 414.35 91 L 414.35 91 Q 411.1 89.5 407.3 89.5 L 407.3 89.5 L 407.3 89.5 Q 401.4 89.5 401.4 91.7 L 401.4 91.7 L 401.4 91.7 Q 401.4 94.7 408.2 95.6 L 408.2 95.6 L 408.2 95.6 Q 414.8 96.3 421 99.4 L 421 99.4 L 421 99.4 Q 423.9 100.8 425.85 104.25 L 425.85 104.25 L 425.85 104.25 Q 427.8 107.7 427.8 112.9 L 427.8 112.9 L 427.8 112.9 Q 427.8 118.1 425.85 121.75 L 425.85 121.75 L 425.85 121.75 Q 423.9 125.4 420.4 127.2 L 420.4 127.2 L 420.4 127.2 Q 414 130.3 404.35 130.3 L 404.35 130.3 L 404.35 130.3 Q 394.7 130.3 385.8 124.7 Z  M 64.9 76.8 L 64.9 76.8 L 64.9 76.8 Q 73.8 76.8 81.25 84.7 L 81.25 84.7 L 81.25 84.7 Q 88.7 92.6 88.7 103.05 L 88.7 103.05 L 88.7 103.05 Q 88.7 113.5 81.3 121.35 L 81.3 121.35 L 81.3 121.35 Q 73.9 129.2 65.4 129.2 L 65.4 129.2 L 65.4 129.2 Q 56.9 129.2 53.3 124.4 L 53.3 124.4 L 53.3 124.4 Q 52.5 129.3 44.7 129.3 L 44.7 129.3 L 44.7 129.3 Q 38.4 129.3 37 126.6 L 37 126.6 L 37 126.6 Q 36.3 125.1 36.15 123.95 L 36.15 123.95 L 36.15 123.95 Q 36 122.8 36 120.5 L 36 120.5 L 36 60.8 L 36 60.8 Q 36 58.5 36.15 57.35 L 36.15 57.35 L 36.15 57.35 Q 36.3 56.2 37 54.8 L 37 54.8 L 37 54.8 Q 38.4 52.1 44.8 52.1 L 44.8 52.1 L 44.8 52.1 Q 51.1 52.1 52.4 54.8 L 52.4 54.8 L 52.4 54.8 Q 53.2 56.3 53.35 57.45 L 53.35 57.45 L 53.35 57.45 Q 53.5 58.6 53.5 60.9 L 53.5 60.9 L 53.5 81.7 L 53.5 81.7 Q 57.5 76.8 64.9 76.8 Z  M 56.15 109.1 L 56.15 109.1 L 56.15 109.1 Q 58.6 111.8 62.3 111.8 L 62.3 111.8 L 62.3 111.8 Q 66 111.8 68.6 109.1 L 68.6 109.1 L 68.6 109.1 Q 71.2 106.4 71.2 103.1 L 71.2 103.1 L 71.2 103.1 Q 71.2 99.8 68.8 97.05 L 68.8 97.05 L 68.8 97.05 Q 66.4 94.3 62.4 94.3 L 62.4 94.3 L 62.4 94.3 Q 58.4 94.3 56.05 97.1 L 56.05 97.1 L 56.05 97.1 Q 53.7 99.9 53.7 103.15 L 53.7 103.15 L 53.7 103.15 Q 53.7 106.4 56.15 109.1 Z  M 118.6 129.2 L 118.6 129.2 L 118.6 129.2 Q 108.5 129.2 101.85 121.55 L 101.85 121.55 L 101.85 121.55 Q 95.2 113.9 95.2 102.9 L 95.2 102.9 L 95.2 85.4 L 95.2 85.4 Q 95.2 83 95.35 81.9 L 95.35 81.9 L 95.35 81.9 Q 95.5 80.8 96.2 79.3 L 96.2 79.3 L 96.2 79.3 Q 97.6 76.6 104 76.6 L 104 76.6 L 104 76.6 Q 111 76.6 112.2 80.4 L 112.2 80.4 L 112.2 80.4 Q 112.8 82 112.8 85.5 L 112.8 85.5 L 112.8 103 L 112.8 103 Q 112.8 107.1 115.15 109.4 L 115.15 109.4 L 115.15 109.4 Q 117.5 111.7 121.45 111.7 L 121.45 111.7 L 121.45 111.7 Q 125.4 111.7 127.85 109.3 L 127.85 109.3 L 127.85 109.3 Q 130.3 106.9 130.3 103 L 130.3 103 L 130.3 85.3 L 130.3 85.3 Q 130.3 83 130.45 81.85 L 130.45 81.85 L 130.45 81.85 Q 130.6 80.7 131.4 79.2 L 131.4 79.2 L 131.4 79.2 Q 132.7 76.6 139.1 76.6 L 139.1 76.6 L 139.1 76.6 Q 145.4 76.6 146.8 79.3 L 146.8 79.3 L 146.8 79.3 Q 147.5 80.8 147.65 81.95 L 147.65 81.95 L 147.65 81.95 Q 147.8 83.1 147.8 85.4 L 147.8 85.4 L 147.8 120.8 L 147.8 120.8 Q 147.8 123 147.65 124.15 L 147.65 124.15 L 147.65 124.15 Q 147.5 125.3 146.7 126.7 L 146.7 126.7 L 146.7 126.7 Q 145.2 129.3 139 129.3 L 139 129.3 L 139 129.3 Q 132.9 129.3 131.5 126.9 L 131.5 126.9 L 131.5 126.9 Q 130.5 125.2 130.5 122.8 L 130.5 122.8 L 130.5 122.8 Q 130.1 123.5 128.7 124.8 L 128.7 124.8 L 128.7 124.8 Q 127.3 126.1 126 127 L 126 127 L 126 127 Q 122.6 129.2 118.6 129.2 Z  M 191.6 77.3 L 191.6 77.3 L 191.6 77.3 Q 193.5 77.9 194.75 79.35 L 194.75 79.35 L 194.75 79.35 Q 196 80.8 196 84 L 196 84 L 196 84 Q 196 87.2 194.1 91 L 194.1 91 L 194.1 91 Q 192.2 94.8 188.6 94.8 L 188.6 94.8 L 188.6 94.8 Q 186.8 94.8 185.15 94 L 185.15 94 L 185.15 94 Q 183.5 93.2 180.8 93.2 L 180.8 93.2 L 180.8 93.2 Q 178.1 93.2 175.75 95.1 L 175.75 95.1 L 175.75 95.1 Q 173.4 97 173.4 99.7 L 173.4 99.7 L 173.4 120.7 L 173.4 120.7 Q 173.4 123 173.25 124.15 L 173.25 124.15 L 173.25 124.15 Q 173.1 125.3 172.3 126.8 L 172.3 126.8 L 172.3 126.8 Q 170.8 129.4 164.5 129.4 L 164.5 129.4 L 164.5 129.4 Q 159.7 129.4 157.6 127.7 L 157.6 127.7 L 157.6 127.7 Q 156 126.3 155.8 123.4 L 155.8 123.4 L 155.8 123.4 Q 155.8 122.4 155.8 120.5 L 155.8 120.5 L 155.8 85.4 L 155.8 85.4 Q 155.8 83.1 155.95 81.95 L 155.95 81.95 L 155.95 81.95 Q 156.1 80.8 156.8 79.4 L 156.8 79.4 L 156.8 79.4 Q 158.2 76.7 164.6 76.7 L 164.6 76.7 L 164.6 76.7 Q 170.6 76.7 172.1 79 L 172.1 79 L 172.1 79 Q 173.2 80.6 173.2 82.3 L 173.2 82.3 L 173.2 82.3 Q 173.7 81.6 174.65 80.6 L 174.65 80.6 L 174.65 80.6 Q 175.6 79.6 178.7 77.9 L 178.7 77.9 L 178.7 77.9 Q 181.8 76.2 184.15 76.2 L 184.15 76.2 L 184.15 76.2 Q 186.5 76.2 188.1 76.45 L 188.1 76.45 L 188.1 76.45 Q 189.7 76.7 191.6 77.3 Z  M 230.8 76.7 L 230.8 76.7 L 230.8 76.7 Q 240.8 76.7 247.45 84.35 L 247.45 84.35 L 247.45 84.35 Q 254.1 92 254.1 103 L 254.1 103 L 254.1 120.6 L 254.1 120.6 Q 254.1 122.9 253.95 124.05 L 253.95 124.05 L 253.95 124.05 Q 253.8 125.2 253.1 126.6 L 253.1 126.6 L 253.1 126.6 Q 251.7 129.3 245.3 129.3 L 245.3 129.3 L 245.3 129.3 Q 238.2 129.3 237.1 125.6 L 237.1 125.6 L 237.1 125.6 Q 236.5 123.9 236.5 120.5 L 236.5 120.5 L 236.5 102.9 L 236.5 102.9 Q 236.5 98.8 234.15 96.5 L 234.15 96.5 L 234.15 96.5 Q 231.8 94.2 227.85 94.2 L 227.85 94.2 L 227.85 94.2 Q 223.9 94.2 221.45 96.6 L 221.45 96.6 L 221.45 96.6 Q 219 99 219 102.9 L 219 102.9 L 219 120.6 L 219 120.6 Q 219 122.9 218.85 124.05 L 218.85 124.05 L 218.85 124.05 Q 218.7 125.2 217.9 126.6 L 217.9 126.6 L 217.9 126.6 Q 216.6 129.3 210.2 129.3 L 210.2 129.3 L 210.2 129.3 Q 203.9 129.3 202.5 126.6 L 202.5 126.6 L 202.5 126.6 Q 201.8 125.1 201.65 123.95 L 201.65 123.95 L 201.65 123.95 Q 201.5 122.8 201.5 120.5 L 201.5 120.5 L 201.5 85.1 L 201.5 85.1 Q 201.5 82.9 201.65 81.75 L 201.65 81.75 L 201.65 81.75 Q 201.8 80.6 202.6 79.2 L 202.6 79.2 L 202.6 79.2 Q 204 76.7 210.3 76.7 L 210.3 76.7 L 210.3 76.7 Q 216.4 76.7 217.8 79 L 217.8 79 L 217.8 79 Q 218.8 80.7 218.8 83.1 L 218.8 83.1 L 218.8 83.1 Q 219.2 82.4 220.6 81.1 L 220.6 81.1 L 220.6 81.1 Q 222 79.8 223.3 79 L 223.3 79 L 223.3 79 Q 226.7 76.7 230.8 76.7 Z  M 277.6 112.9 L 277.6 112.9 L 277.6 112.9 Q 279.3 114.6 279.3 119.9 L 279.3 119.9 L 279.3 120.3 L 279.3 120.3 Q 279.3 122.7 279.15 123.85 L 279.15 123.85 L 279.15 123.85 Q 279 125 278.1 126.6 L 278.1 126.6 L 278.1 126.6 Q 276.6 129.5 270.55 129.5 L 270.55 129.5 L 270.55 129.5 Q 264.5 129.5 262.55 127.6 L 262.55 127.6 L 262.55 127.6 Q 260.6 125.7 260.6 120.4 L 260.6 120.4 L 260.6 120 L 260.6 120 Q 260.6 117.7 260.75 116.5 L 260.75 116.5 L 260.75 116.5 Q 260.9 115.3 261.7 113.8 L 261.7 113.8 L 261.7 113.8 Q 263.2 110.8 269.25 110.8 L 269.25 110.8 L 269.25 110.8 Q 275.3 110.8 277.6 112.9 Z " fill="url(#_lgradient_1)"/></g></svg>